<svg width="258" height="251" viewBox="0 0 258 251" fill="none" xmlns="http://www.w3.org/2000/svg">
<g clip-path="url(#clip0_827_18407)">
<path d="M216.168 240.7L211.799 240.663L209.865 223.448L216.313 223.503L216.168 240.7Z" fill="#A0616A"/>
<path d="M202.174 247.635C202.17 248.152 202.372 248.65 202.735 249.019C203.098 249.387 203.593 249.597 204.11 249.602L212.797 249.675L214.318 246.598L214.876 249.69L218.154 249.72L217.326 238.689L216.186 238.614L211.535 238.293L210.034 238.193L210.008 241.314L203.03 246.039C202.768 246.216 202.554 246.454 202.405 246.732C202.256 247.01 202.177 247.32 202.174 247.635Z" fill="#2F2E41"/>
<path d="M167.819 240.72L163.653 239.403L166.871 222.381L173.019 224.324L167.819 240.72Z" fill="#A0616A"/>
<path d="M152.401 243.244C152.245 243.738 152.292 244.272 152.53 244.731C152.769 245.19 153.18 245.536 153.673 245.693L161.955 248.31L164.314 245.814L163.938 248.934L167.062 249.924L169.518 239.137L168.45 238.731L164.098 237.06L162.693 236.524L161.75 239.5L153.689 241.969C153.387 242.062 153.112 242.227 152.888 242.449C152.664 242.671 152.497 242.944 152.401 243.244Z" fill="#2F2E41"/>
<path d="M229.241 241.322C229.483 241.333 229.723 241.269 229.928 241.14C230.132 241.011 230.292 240.821 230.386 240.598C230.479 240.375 230.502 240.129 230.45 239.892C230.399 239.656 230.276 239.441 230.098 239.277L230.017 238.955C230.027 238.93 230.038 238.904 230.049 238.878C230.293 238.303 230.701 237.813 231.224 237.469C231.746 237.125 232.358 236.943 232.983 236.945C233.609 236.947 234.22 237.134 234.739 237.482C235.259 237.83 235.664 238.323 235.903 238.9C236.861 241.202 238.08 243.508 238.38 245.943C238.513 247.019 238.457 248.109 238.216 249.166C240.465 244.269 241.632 238.946 241.64 233.558C241.64 232.206 241.565 230.855 241.415 229.512C241.29 228.41 241.117 227.316 240.897 226.231C239.691 220.339 237.103 214.818 233.345 210.119C231.526 209.128 230.055 207.604 229.13 205.753C228.795 205.088 228.558 204.378 228.427 203.644C228.632 203.671 229.2 200.552 229.046 200.36C229.332 199.927 229.843 199.712 230.156 199.289C231.709 197.187 233.849 197.554 234.966 200.411C237.353 201.613 237.376 203.607 235.911 205.525C234.98 206.745 234.852 208.396 234.034 209.702C234.118 209.81 234.206 209.914 234.29 210.021C235.827 211.995 237.167 214.114 238.29 216.348C238.017 213.845 238.343 211.313 239.242 208.96C240.152 206.768 241.859 204.921 243.361 203.025C243.759 202.516 244.299 202.136 244.912 201.933C245.526 201.73 246.187 201.713 246.81 201.885C247.433 202.056 247.992 202.409 248.415 202.897C248.838 203.385 249.106 203.988 249.186 204.628C249.189 204.656 249.192 204.684 249.195 204.712C248.972 204.838 248.753 204.971 248.54 205.113C248.271 205.292 248.063 205.548 247.943 205.847C247.822 206.146 247.795 206.475 247.865 206.789C247.935 207.104 248.098 207.391 248.334 207.611C248.57 207.832 248.867 207.976 249.186 208.025L249.219 208.03C249.139 208.833 248.999 209.629 248.798 210.411C250.726 217.854 246.564 220.565 240.621 220.687C240.489 220.754 240.362 220.821 240.23 220.885C241.359 224.077 242.067 227.403 242.336 230.778C242.489 232.769 242.48 234.769 242.309 236.758L242.319 236.688C242.75 234.475 243.932 232.479 245.666 231.036C248.242 228.924 251.881 228.146 254.66 226.448C254.955 226.259 255.299 226.158 255.65 226.157C256.001 226.156 256.344 226.256 256.641 226.443C256.937 226.631 257.173 226.9 257.322 227.217C257.47 227.535 257.524 227.888 257.478 228.235L257.467 228.309C257.053 228.478 256.649 228.672 256.259 228.89C256.036 229.016 255.817 229.149 255.604 229.291C255.335 229.47 255.127 229.726 255.007 230.025C254.886 230.324 254.859 230.653 254.929 230.967C254.999 231.282 255.162 231.569 255.398 231.789C255.634 232.01 255.931 232.154 256.25 232.203L256.283 232.208C256.306 232.211 256.327 232.215 256.35 232.218C255.642 233.905 254.649 235.458 253.413 236.809C252.208 243.306 247.03 243.923 241.492 242.03H241.489C240.881 244.666 240 247.232 238.861 249.687H229.476C229.443 249.583 229.412 249.475 229.382 249.371C230.251 249.426 231.123 249.374 231.979 249.217C231.283 248.364 230.586 247.504 229.89 246.651C229.874 246.635 229.86 246.618 229.846 246.601C229.493 246.164 229.136 245.731 228.783 245.294L228.783 245.294C228.764 243.956 228.918 242.621 229.241 241.322L229.241 241.322Z" fill="#F2F2F2"/>
<path d="M124.271 249.715C124.271 249.796 124.287 249.877 124.318 249.952C124.349 250.027 124.395 250.095 124.452 250.153C124.51 250.21 124.578 250.256 124.654 250.287C124.729 250.318 124.81 250.334 124.891 250.333H256.807C256.972 250.333 257.129 250.268 257.246 250.152C257.362 250.036 257.427 249.879 257.427 249.715C257.427 249.551 257.362 249.393 257.246 249.277C257.129 249.161 256.972 249.096 256.807 249.096H124.891C124.81 249.096 124.729 249.112 124.654 249.143C124.578 249.174 124.51 249.219 124.452 249.277C124.395 249.334 124.349 249.402 124.318 249.478C124.287 249.553 124.271 249.633 124.271 249.715Z" fill="#CCCCCC"/>
<path d="M249.26 134.34C251.848 134.34 253.947 132.245 253.947 129.661C253.947 127.077 251.848 124.982 249.26 124.982C246.671 124.982 244.572 127.077 244.572 129.661C244.572 132.245 246.671 134.34 249.26 134.34Z" fill="#FB9400"/>
<path d="M164.419 56.3743H150.744V172.755C150.744 174.581 150.384 176.389 149.684 178.076C148.984 179.763 147.958 181.296 146.665 182.587C145.371 183.879 143.836 184.903 142.146 185.601C140.456 186.3 138.645 186.66 136.816 186.66H32.2695V186.793C32.2695 188.619 32.6298 190.427 33.3298 192.114C34.0297 193.801 35.0557 195.334 36.3491 196.625C37.6425 197.916 39.178 198.94 40.8679 199.639C42.5578 200.338 44.369 200.698 46.1981 200.698H164.419C166.248 200.698 168.059 200.338 169.749 199.639C171.439 198.94 172.974 197.916 174.268 196.625C175.561 195.334 176.587 193.801 177.287 192.114C177.987 190.427 178.347 188.619 178.347 186.793V70.2789C178.347 66.5912 176.88 63.0545 174.268 60.4468C171.656 57.8392 168.113 56.3743 164.419 56.3743Z" fill="#F2F2F2"/>
<path d="M125.872 40.5432C126.214 41.0615 126.666 41.4992 127.194 41.8262C127.723 42.1532 128.317 42.3616 128.934 42.4371C129.552 42.5125 130.178 42.4532 130.77 42.2632C131.362 42.0731 131.906 41.757 132.364 41.3365L151.876 50.1245L155.638 45.3344L132.387 35.0659C131.62 34.3494 130.617 33.9383 129.568 33.9107C128.518 33.883 127.495 34.2406 126.692 34.9158C125.889 35.5909 125.362 36.5367 125.211 37.5739C125.06 38.6111 125.295 39.6676 125.872 40.5432H125.872Z" fill="#A0616A"/>
<path d="M209.61 46.023L211.545 56.9705C211.636 57.4812 211.618 58.0051 211.494 58.5086C211.369 59.0122 211.14 59.4841 210.822 59.8942C210.504 60.3043 210.104 60.6434 209.647 60.8899C209.19 61.1363 208.686 61.2847 208.168 61.3253L175.285 63.9068L136.632 46.6375L141.248 37.8888L174.803 48.4962L209.61 46.023Z" fill="#FB9400"/>
<path d="M132.649 38.1773H14.4286C6.73605 38.1773 0.5 44.4026 0.5 52.0819V168.596C0.5 176.275 6.73605 182.501 14.4286 182.501H132.649C140.342 182.501 146.578 176.275 146.578 168.596V52.0819C146.578 44.4026 140.342 38.1773 132.649 38.1773Z" fill="#F2F2F2"/>
<path d="M14.4284 41.0367C12.9755 41.0367 11.5367 41.3224 10.1944 41.8775C8.85199 42.4326 7.63228 43.2462 6.60488 44.2718C5.57747 45.2974 4.76249 46.515 4.20646 47.8551C3.65043 49.1951 3.36426 50.6314 3.36426 52.0819V168.596C3.36426 171.525 4.52994 174.335 6.60488 176.406C8.67982 178.478 11.494 179.641 14.4284 179.641H89.8796C96.9491 179.641 103.949 178.251 110.481 175.55C117.012 172.85 122.947 168.891 127.946 163.901C132.944 158.911 136.91 152.986 139.615 146.466C142.32 139.946 143.713 132.958 143.713 125.901V52.0819C143.713 50.6314 143.427 49.1951 142.871 47.8551C142.315 46.515 141.5 45.2974 140.472 44.2718C139.445 43.2462 138.225 42.4326 136.883 41.8775C135.54 41.3224 134.102 41.0367 132.649 41.0367H14.4284Z" fill="white"/>
<path d="M155.072 184.134H111.633C111.024 184.134 110.44 183.892 110.009 183.462C109.579 183.033 109.337 182.45 109.337 181.842C109.337 181.234 109.579 180.651 110.009 180.221C110.44 179.792 111.024 179.55 111.633 179.55H155.072C155.68 179.55 156.264 179.792 156.695 180.221C157.125 180.651 157.367 181.234 157.367 181.842C157.367 182.45 157.125 183.033 156.695 183.462C156.264 183.892 155.68 184.134 155.072 184.134Z" fill="#FB9400"/>
<path d="M149.268 148.965H50.8343C48.6933 148.965 46.64 149.814 45.1261 151.326C43.6122 152.837 42.7617 154.887 42.7617 157.024C42.7617 159.161 43.6122 161.211 45.1261 162.722C46.64 164.234 48.6933 165.083 50.8343 165.083H149.268C151.409 165.083 153.462 164.234 154.976 162.722C156.49 161.211 157.34 159.161 157.34 157.024C157.34 154.887 156.49 152.837 154.976 151.326C153.462 149.814 151.409 148.965 149.268 148.965Z" fill="white"/>
<path d="M149.267 165.602H50.8336C48.5545 165.602 46.3687 164.699 44.7572 163.09C43.1456 161.481 42.2402 159.299 42.2402 157.024C42.2402 154.749 43.1456 152.567 44.7572 150.958C46.3687 149.349 48.5545 148.445 50.8336 148.445H149.267C151.546 148.445 153.732 149.349 155.343 150.958C156.955 152.567 157.86 154.749 157.86 157.024C157.86 159.299 156.955 161.481 155.343 163.09C153.732 164.699 151.546 165.602 149.267 165.602ZM50.8336 149.485C48.8308 149.485 46.9099 150.279 45.4937 151.693C44.0775 153.107 43.2819 155.024 43.2819 157.024C43.2819 159.023 44.0775 160.941 45.4937 162.355C46.9099 163.768 48.8308 164.563 50.8336 164.563H149.267C151.27 164.563 153.191 163.768 154.607 162.355C156.023 160.941 156.819 159.023 156.819 157.024C156.819 155.024 156.023 153.107 154.607 151.693C153.191 150.279 151.27 149.485 149.267 149.485H50.8336Z" fill="#FB9400"/>
<path d="M106.587 125.269H40.2323C39.6234 125.269 39.0395 125.027 38.6089 124.598C38.1784 124.168 37.9365 123.585 37.9365 122.977C37.9365 122.369 38.1784 121.786 38.6089 121.356C39.0395 120.927 39.6234 120.685 40.2323 120.685H106.587C107.196 120.685 107.78 120.927 108.21 121.356C108.641 121.786 108.883 122.369 108.883 122.977C108.883 123.585 108.641 124.168 108.21 124.598C107.78 125.027 107.196 125.269 106.587 125.269Z" fill="#F2F2F2"/>
<path d="M133.532 100.849H13.287C12.6781 100.849 12.0942 100.607 11.6636 100.178C11.2331 99.7478 10.9912 99.1648 10.9912 98.557C10.9912 97.9492 11.2331 97.3662 11.6636 96.9364C12.0942 96.5067 12.6781 96.2652 13.287 96.2652H133.532C134.141 96.2652 134.725 96.5067 135.155 96.9364C135.586 97.3662 135.828 97.9492 135.828 98.557C135.828 99.1648 135.586 99.7478 135.155 100.178C134.725 100.607 134.141 100.849 133.532 100.849Z" fill="#F2F2F2"/>
<path d="M205.455 94.2751L193.477 119.751L239.556 115.092L229.938 90.6357L205.455 94.2751Z" fill="#A0616A"/>
<path d="M237.458 107.928L195.56 115.592C195.56 115.592 188.84 120.61 190.638 122.407C192.436 124.204 192.714 123.926 191.533 125.105C190.352 126.284 187.799 127.86 187.773 128.892C187.748 129.923 168.999 176.196 168.999 176.196C168.999 176.196 171.082 175.156 169.52 176.716C167.957 178.275 167.957 179.564 167.957 179.564L160.666 228.707L172.507 229.403L184.103 184.6L209.966 142.745C209.966 142.745 212.532 180.069 212.639 182.552C212.747 185.034 214.31 181.915 212.747 185.034C211.185 188.154 210.143 186.074 211.185 188.154C212.226 190.233 207.432 232.572 207.432 232.572H218.241L241.422 144.815C241.422 144.815 249.67 119.727 237.458 107.928Z" fill="#2F2E41"/>
<path d="M249.312 131.59C249.645 131.066 249.86 130.476 249.942 129.86C250.024 129.245 249.972 128.619 249.788 128.025C249.603 127.432 249.293 126.886 248.876 126.425C248.46 125.963 247.948 125.598 247.376 125.353L247.41 103.984L241.492 102.522L241.637 127.902C241.297 128.894 241.332 129.976 241.737 130.943C242.142 131.91 242.888 132.695 243.834 133.149C244.78 133.604 245.86 133.696 246.87 133.409C247.879 133.122 248.748 132.475 249.312 131.59V131.59Z" fill="#A0616A"/>
<path d="M106.587 76.3968H40.2323C39.6234 76.3968 39.0395 76.1554 38.6089 75.7256C38.1784 75.2958 37.9365 74.7129 37.9365 74.105C37.9365 73.4972 38.1784 72.9143 38.6089 72.4845C39.0395 72.0547 39.6234 71.8132 40.2323 71.8132H106.587C107.196 71.8132 107.78 72.0547 108.21 72.4845C108.641 72.9143 108.883 73.4972 108.883 74.105C108.883 74.7129 108.641 75.2958 108.21 75.7256C107.78 76.1554 107.196 76.3968 106.587 76.3968Z" fill="#F2F2F2"/>
<path d="M225.115 37.7331L208.332 35.9923L203.984 41.6278L198.918 44.3211C196.775 45.4608 195.005 47.1928 193.822 49.31C192.638 51.4272 192.09 53.8398 192.244 56.2595L198.164 90.6358C198.164 90.6358 193.164 101.876 196.601 104.673C200.039 107.471 193.943 114.4 201.289 110.912C208.634 107.425 240.35 111.432 240.35 111.432L233.579 92.1955L238.637 73.2927L239.193 57.4429C239.298 54.4812 238.417 51.5682 236.689 49.1582C234.962 46.7482 232.484 44.9764 229.642 44.1192L228.935 43.9058L225.115 37.7331Z" fill="#FB9400"/>
<path d="M220.003 53.0928L229.213 46.8442C229.643 46.5527 230.129 46.3541 230.64 46.2612C231.151 46.1683 231.676 46.1831 232.181 46.3046C232.686 46.4262 233.16 46.6518 233.573 46.967C233.985 47.2823 234.327 47.6801 234.576 48.1351L250.411 77.0208L250.471 119.295L240.585 118.677L236.527 83.7752L220.003 53.0928Z" fill="#FB9400"/>
<path d="M248.221 24.889C248.331 29.6113 246.563 34.184 244.023 38.2003C243.269 35.8557 241.912 33.7217 240.497 31.6874C241.21 36.0881 240.451 40.6007 238.336 44.527C238.261 44.5802 238.184 44.6297 238.104 44.6751C236.034 45.9182 233.41 46.4218 231.17 45.5239C235.797 40.5448 236.386 32.2953 232.507 26.7105C231.409 25.1258 229.988 23.7242 229.308 21.9208C228.234 19.0433 229.266 15.8751 229.918 12.875C230.527 10.0829 230.633 6.7602 228.757 4.7139C228.957 4.42793 229.23 4.2003 229.548 4.05433C229.865 3.90837 230.216 3.84931 230.564 3.88321C231.721 4.04636 232.563 5.05024 233.1 6.08418C233.636 7.11809 233.99 8.26401 234.737 9.15705C236.121 10.8286 238.479 11.2238 240.465 12.1047C245.276 14.2439 248.105 19.6342 248.221 24.889Z" fill="#2F2E41"/>
<path d="M207.723 22.1889C207.998 21.2283 206.103 27.1002 207.017 27.2062C211.182 27.6831 216.899 30.1661 219.8 31.3245C219.931 31.3094 220.061 31.2942 220.188 31.2753C220.499 31.2412 220.803 31.192 221.102 31.1353C227.857 29.8595 230.454 19.5021 230.454 19.4075C230.454 18.9419 229.335 6.15329 227.571 5.96404C227.108 5.91387 226.642 5.88859 226.176 5.88833H221.8C220.895 5.69353 219.977 5.56073 219.053 5.49085H219.046C210.236 4.8208 203.29 10.1811 203.939 16.7036C203.943 16.7112 203.951 16.7188 203.954 16.7264C204.143 17.0065 204.308 17.2715 204.454 17.5251C204.596 17.7636 204.715 17.9907 204.819 18.2065C205.622 19.8722 203.558 21.9681 204.926 22.3593C206.747 22.8796 200.139 39.981 207.344 39.981C203.839 40.9757 206.965 24.8388 207.723 22.1889Z" fill="#2F2E41"/>
<path d="M215.587 32.2233C221.309 32.2233 225.948 27.5926 225.948 21.8804C225.948 16.1681 221.309 11.5374 215.587 11.5374C209.865 11.5374 205.227 16.1681 205.227 21.8804C205.227 27.5926 209.865 32.2233 215.587 32.2233Z" fill="#A0616A"/>
<path d="M203.939 17.2677C204.112 17.3585 204.281 17.4418 204.454 17.5251C204.635 17.6122 204.815 17.6992 204.996 17.7787C208.465 19.3497 211.289 19.5239 213.003 17.2677C213.049 16.0805 213.316 14.9123 213.79 13.8228C213.706 15.0403 214.028 16.2514 214.705 17.2677H218.155C221.709 19.6223 223.534 19.8684 221.067 27.5984C220.379 29.7524 217.645 42.2864 218.721 44.1451C219.032 44.111 222.343 30.3825 222.642 30.3257C229.396 29.05 233.688 17.9415 233.139 17.3131C233.141 15.5261 232.73 13.7627 231.936 12.161C230.932 10.1316 229.367 8.4318 227.425 7.26247C226.268 6.70237 225.062 6.24997 223.822 5.91103C223.791 5.90345 223.764 5.89587 223.733 5.88831C223.353 5.78609 222.965 5.69146 222.577 5.61196C221.775 5.44298 220.965 5.32038 220.149 5.24477C220.091 5.24098 220.034 5.23718 219.98 5.23718C219.654 5.23794 219.334 5.32551 219.054 5.49083C219.05 5.49083 219.05 5.4946 219.046 5.4946C218.846 5.61154 218.671 5.76726 218.531 5.95264C218.286 6.26456 218.153 6.65007 218.155 7.04667H214.313C214.171 7.04667 214.028 7.05046 213.886 7.05802C211.322 7.1455 208.883 8.18505 207.046 9.97325C205.209 11.7614 204.107 14.1696 203.955 16.7264C203.943 16.9081 203.939 17.086 203.939 17.2677Z" fill="#2F2E41"/>
<path d="M226.592 13.9613C230.362 13.9613 233.418 10.9106 233.418 7.14731C233.418 3.38404 230.362 0.333313 226.592 0.333313C222.823 0.333313 219.767 3.38404 219.767 7.14731C219.767 10.9106 222.823 13.9613 226.592 13.9613Z" fill="#2F2E41"/>
</g>
<defs>
<clipPath id="clip0_827_18407">
<rect width="257" height="250" fill="white" transform="translate(0.5 0.333313)"/>
</clipPath>
</defs>
</svg>
